<svg width="17" height="16" viewBox="0 0 17 16" fill="none" xmlns="http://www.w3.org/2000/svg">
<path fill-rule="evenodd" clip-rule="evenodd" d="M8.7345 2.63462C8.88452 2.48464 9.08797 2.40039 9.3001 2.40039C9.51223 2.40039 9.71567 2.48464 9.8657 2.63462L14.6657 7.43462C14.8157 7.58464 14.8999 7.78809 14.8999 8.00022C14.8999 8.21235 14.8157 8.4158 14.6657 8.56582L9.8657 13.3658C9.71482 13.5115 9.51273 13.5922 9.30298 13.5904C9.09322 13.5885 8.89257 13.5044 8.74424 13.3561C8.59592 13.2077 8.51178 13.0071 8.50996 12.7973C8.50814 12.5876 8.58877 12.3855 8.7345 12.2346L12.1689 8.80022H2.9001C2.68792 8.80022 2.48444 8.71593 2.33441 8.5659C2.18438 8.41588 2.1001 8.21239 2.1001 8.00022C2.1001 7.78805 2.18438 7.58456 2.33441 7.43453C2.48444 7.28451 2.68792 7.20022 2.9001 7.20022H12.1689L8.7345 3.76582C8.58452 3.6158 8.50027 3.41235 8.50027 3.20022C8.50027 2.98809 8.58452 2.78464 8.7345 2.63462V2.63462Z" fill="white"/>
</svg>
