<svg width="14" height="15" viewBox="0 0 14 15" fill="none" xmlns="http://www.w3.org/2000/svg">
<path d="M13.9239 7.9006C13.9996 7.70918 14.0194 7.49854 13.9808 7.29533C13.9421 7.09212 13.8468 6.90548 13.7069 6.75902L9.70661 2.56973C9.61436 2.4697 9.50401 2.38992 9.382 2.33503C9.25999 2.28014 9.12876 2.25125 8.99597 2.25004C8.86318 2.24883 8.73149 2.27533 8.60859 2.32799C8.48569 2.38065 8.37403 2.45842 8.28013 2.55675C8.18623 2.65509 8.11197 2.77202 8.06169 2.90074C8.0114 3.02945 7.9861 3.16736 7.98725 3.30642C7.98841 3.44548 8.016 3.58291 8.06841 3.71069C8.12082 3.83847 8.19701 3.95404 8.29252 4.05065L10.5867 6.4532H1.00006C0.73483 6.4532 0.48046 6.56354 0.292912 6.75996C0.105364 6.95637 0 7.22276 0 7.50052C0 7.77829 0.105364 8.04468 0.292912 8.24109C0.48046 8.4375 0.73483 8.54784 1.00006 8.54784H10.5867L8.29352 10.9494C8.19801 11.046 8.12182 11.1615 8.06941 11.2893C8.017 11.4171 7.98941 11.5545 7.98825 11.6936C7.9871 11.8326 8.0124 11.9706 8.06269 12.0993C8.11297 12.228 8.18723 12.3449 8.28113 12.4432C8.37503 12.5416 8.48669 12.6194 8.60959 12.672C8.73249 12.7247 8.86418 12.7512 8.99697 12.75C9.12976 12.7488 9.26099 12.7199 9.383 12.665C9.50501 12.6101 9.61536 12.5303 9.70761 12.4303L13.7079 8.24098C13.8005 8.14348 13.8739 8.02781 13.9239 7.9006V7.9006Z" fill="white"/>
</svg>
