<svg width="15" height="15" viewBox="0 0 15 15" fill="none" xmlns="http://www.w3.org/2000/svg">
<g clip-path="url(#clip0_128_187)">
<path d="M14.3819 7.67892C14.4576 7.4875 14.4774 7.27686 14.4388 7.07365C14.4001 6.87044 14.3048 6.6838 14.1649 6.53734L10.1646 2.34805C10.0724 2.24802 9.96202 2.16824 9.84001 2.11335C9.71799 2.05846 9.58677 2.02957 9.45398 2.02836C9.32119 2.02715 9.1895 2.05365 9.0666 2.10631C8.94369 2.15897 8.83203 2.23674 8.73814 2.33507C8.64424 2.43341 8.56998 2.55034 8.5197 2.67906C8.46941 2.80777 8.44411 2.94568 8.44526 3.08474C8.44642 3.2238 8.474 3.36123 8.52642 3.48901C8.57883 3.61679 8.65502 3.73236 8.75053 3.82897L11.0447 6.23152H1.45807C1.19284 6.23152 0.938468 6.34187 0.75092 6.53828C0.563372 6.73469 0.458008 7.00108 0.458008 7.27884C0.458008 7.55661 0.563372 7.823 0.75092 8.01941C0.938468 8.21582 1.19284 8.32617 1.45807 8.32617H11.0447L8.75153 10.7277C8.65602 10.8243 8.57983 10.9399 8.52742 11.0676C8.475 11.1954 8.44742 11.3328 8.44626 11.4719C8.44511 11.611 8.47041 11.7489 8.5207 11.8776C8.57098 12.0063 8.64524 12.1232 8.73914 12.2216C8.83303 12.3199 8.94469 12.3977 9.0676 12.4503C9.1905 12.503 9.32219 12.5295 9.45498 12.5283C9.58776 12.5271 9.71899 12.4982 9.841 12.4433C9.96302 12.3884 10.0734 12.3086 10.1656 12.2086L14.1659 8.0193C14.2585 7.9218 14.3319 7.80614 14.3819 7.67892V7.67892Z" fill="white"/>
</g>
<defs>
<clipPath id="clip0_128_187">
<rect width="14" height="14" fill="white" transform="translate(0.458008 0.27832)"/>
</clipPath>
</defs>
</svg>
