<svg width="14" height="15" viewBox="0 0 14 15" fill="none" xmlns="http://www.w3.org/2000/svg">
<path d="M13.9239 7.67892C13.9996 7.4875 14.0194 7.27686 13.9808 7.07365C13.9421 6.87044 13.8468 6.6838 13.7069 6.53734L9.70661 2.34805C9.61436 2.24802 9.50401 2.16824 9.382 2.11335C9.25999 2.05846 9.12876 2.02957 8.99597 2.02836C8.86318 2.02715 8.73149 2.05365 8.60859 2.10631C8.48569 2.15897 8.37403 2.23674 8.28013 2.33507C8.18623 2.43341 8.11197 2.55034 8.06169 2.67906C8.0114 2.80777 7.9861 2.94568 7.98725 3.08474C7.98841 3.2238 8.016 3.36123 8.06841 3.48901C8.12082 3.61679 8.19701 3.73236 8.29252 3.82897L10.5867 6.23152H1.00006C0.73483 6.23152 0.48046 6.34187 0.292912 6.53828C0.105364 6.73469 0 7.00108 0 7.27884C0 7.55661 0.105364 7.823 0.292912 8.01941C0.48046 8.21582 0.73483 8.32617 1.00006 8.32617H10.5867L8.29352 10.7277C8.19801 10.8243 8.12182 10.9399 8.06941 11.0676C8.017 11.1954 7.98941 11.3328 7.98825 11.4719C7.9871 11.611 8.0124 11.7489 8.06269 11.8776C8.11297 12.0063 8.18723 12.1232 8.28113 12.2216C8.37503 12.3199 8.48669 12.3977 8.60959 12.4503C8.73249 12.503 8.86418 12.5295 8.99697 12.5283C9.12976 12.5271 9.26099 12.4982 9.383 12.4433C9.50501 12.3884 9.61536 12.3086 9.70761 12.2086L13.7079 8.0193C13.8005 7.9218 13.8739 7.80614 13.9239 7.67892V7.67892Z" fill="white"/>
</svg>
