<svg width="17" height="16" viewBox="0 0 17 16" fill="none" xmlns="http://www.w3.org/2000/svg">
<g clip-path="url(#clip0_184_64)">
<path d="M14.7836 9.01807L16.4678 3.41877C16.5035 3.29973 16.5096 3.17445 16.4857 3.05277C16.4618 2.9311 16.4085 2.81636 16.3299 2.71758C16.2514 2.6188 16.1498 2.53868 16.0332 2.48352C15.9165 2.42836 15.788 2.39967 15.6577 2.3997H4.51679L4.01574 0.595925C3.96832 0.42513 3.86272 0.274047 3.71542 0.166246C3.56811 0.0584447 3.38739 -1.04106e-05 3.20144 1.39069e-09H1.34209C1.11876 1.39069e-09 0.904566 0.0842749 0.746643 0.234285C0.58872 0.384295 0.5 0.587753 0.5 0.7999C0.5 1.01205 0.58872 1.2155 0.746643 1.36551C0.904566 1.51552 1.11876 1.5998 1.34209 1.5998H2.55302L3.05828 3.40357V3.41157V3.41877L4.74247 9.01807L5.37067 11.4066C4.95479 11.5817 4.59642 11.8603 4.3334 12.2129C4.07038 12.5655 3.91247 12.979 3.87635 13.4098C3.84023 13.8405 3.92724 14.2726 4.12818 14.6603C4.32913 15.048 4.63655 15.3769 5.018 15.6124C5.39945 15.8479 5.84076 15.9812 6.29534 15.9981C6.74991 16.0151 7.20088 15.9152 7.60063 15.7089C8.00038 15.5026 8.33406 15.1976 8.56645 14.8261C8.79884 14.4546 8.92131 14.0304 8.92093 13.5983C8.91814 13.3252 8.86572 13.0546 8.76599 12.7984H10.7601C10.6603 13.0546 10.6079 13.3252 10.6051 13.5983C10.6051 14.0729 10.7533 14.5369 11.0309 14.9315C11.3085 15.3261 11.703 15.6337 12.1646 15.8153C12.6263 15.997 13.1342 16.0445 13.6243 15.9519C14.1143 15.8593 14.5644 15.6307 14.9177 15.2951C15.2711 14.9595 15.5117 14.532 15.6091 14.0665C15.7066 13.601 15.6566 13.1185 15.4654 12.68C15.2742 12.2415 14.9504 11.8667 14.5349 11.603C14.1195 11.3393 13.6311 11.1986 13.1314 11.1986H7.05149L6.63044 9.5988H13.9735C14.1566 9.59884 14.3348 9.54218 14.481 9.43738C14.6272 9.33259 14.7334 9.18538 14.7836 9.01807ZM13.1314 12.7984C13.298 12.7984 13.4608 12.8453 13.5992 12.9332C13.7377 13.0211 13.8457 13.146 13.9094 13.2922C13.9731 13.4384 13.9898 13.5992 13.9573 13.7543C13.9248 13.9095 13.8446 14.052 13.7268 14.1639C13.6091 14.2758 13.459 14.352 13.2957 14.3828C13.1323 14.4137 12.963 14.3979 12.8091 14.3373C12.6553 14.2768 12.5238 14.1742 12.4312 14.0427C12.3387 13.9112 12.2893 13.7565 12.2893 13.5983C12.2893 13.3861 12.378 13.1827 12.5359 13.0327C12.6939 12.8827 12.9081 12.7984 13.1314 12.7984ZM7.23675 13.5983C7.23675 13.7565 7.18736 13.9112 7.09483 14.0427C7.0023 14.1742 6.87078 14.2768 6.71691 14.3373C6.56304 14.3979 6.39372 14.4137 6.23037 14.3828C6.06702 14.352 5.91697 14.2758 5.7992 14.1639C5.68143 14.052 5.60123 13.9095 5.56874 13.7543C5.53625 13.5992 5.55292 13.4384 5.61666 13.2922C5.6804 13.146 5.78833 13.0211 5.92681 12.9332C6.06529 12.8453 6.2281 12.7984 6.39465 12.7984C6.61799 12.7984 6.83218 12.8827 6.9901 13.0327C7.14803 13.1827 7.23675 13.3861 7.23675 13.5983ZM11.4472 6.3992H10.6051V7.1991C10.6051 7.41124 10.5164 7.6147 10.3585 7.76471C10.2006 7.91472 9.98636 7.999 9.76303 7.999C9.53969 7.999 9.3255 7.91472 9.16758 7.76471C9.00965 7.6147 8.92093 7.41124 8.92093 7.1991V6.3992H8.07884C7.8555 6.3992 7.64131 6.31492 7.48339 6.16491C7.32547 6.0149 7.23675 5.81145 7.23675 5.5993C7.23675 5.38715 7.32547 5.18369 7.48339 5.03368C7.64131 4.88367 7.8555 4.7994 8.07884 4.7994H8.92093V3.9995C8.92093 3.78735 9.00965 3.58389 9.16758 3.43388C9.3255 3.28387 9.53969 3.1996 9.76303 3.1996C9.98636 3.1996 10.2006 3.28387 10.3585 3.43388C10.5164 3.58389 10.6051 3.78735 10.6051 3.9995V4.7994H11.4472C11.6705 4.7994 11.8847 4.88367 12.0427 5.03368C12.2006 5.18369 12.2893 5.38715 12.2893 5.5993C12.2893 5.81145 12.2006 6.0149 12.0427 6.16491C11.8847 6.31492 11.6705 6.3992 11.4472 6.3992Z" fill="#111928"/>
</g>
<defs>
<clipPath id="clip0_184_64">
<rect width="16" height="16" fill="white" transform="translate(0.5)"/>
</clipPath>
</defs>
</svg>
