<svg width="10" height="11" viewBox="0 0 10 11" fill="none" xmlns="http://www.w3.org/2000/svg">
<path d="M4.71409 7.40278L4.71414 7.40283C4.78662 7.46982 4.89278 7.5136 5.01096 7.51367L4.71409 7.40278ZM4.71409 7.40278L1.11409 4.07626L1.11414 4.0762M4.71409 7.40278L1.11414 4.0762M1.11414 4.0762L1.10769 4.07044M1.11414 4.0762L1.10769 4.07044M1.10769 4.07044C1.07097 4.03767 1.04408 4.00065 1.02647 3.96276C1.00892 3.92501 1.00037 3.88606 1.00001 3.84783C0.999652 3.8096 1.00746 3.77064 1.02421 3.73282C1.04101 3.69487 1.06704 3.65764 1.10293 3.62448C1.13891 3.59124 1.18383 3.56302 1.23601 3.54329C1.28823 3.52355 1.34539 3.51322 1.40381 3.51369C1.46223 3.51416 1.51908 3.52541 1.57076 3.54592C1.62239 3.56641 1.66657 3.59522 1.70171 3.62884L1.70166 3.6289M1.10769 4.07044L1.70166 3.6289M1.70166 3.6289L1.70803 3.63479M1.70166 3.6289L1.70803 3.63479M1.70803 3.63479L4.67173 6.37334L5.01106 6.6869M1.70803 3.63479L5.01106 6.6869M5.01106 6.6869L5.35039 6.37334M5.01106 6.6869L5.35039 6.37334M5.35039 6.37334L8.31025 3.63833C8.3835 3.57416 8.48827 3.5332 8.6038 3.53413C8.72068 3.53506 8.82538 3.57867 8.89707 3.64492C8.96749 3.70999 8.99929 3.78936 8.99999 3.86322C9.00067 3.93613 8.97116 4.01453 8.90419 4.07981L5.30803 7.40278L5.30797 7.40283M5.35039 6.37334L5.30797 7.40283M5.30797 7.40283C5.2355 7.46982 5.12934 7.5136 5.01116 7.51367L5.30797 7.40283Z" fill="#6B7280" stroke="#6B7280"/>
</svg>
