<svg width="28" height="20" viewBox="0 0 28 20" fill="none" xmlns="http://www.w3.org/2000/svg">
<rect x="0.25" y="0.25" width="27.5" height="19.5" rx="1.75" fill="white" stroke="#080C0A" stroke-width="0.5"/>
<mask id="mask0_9_1245" style="mask-type:luminance" maskUnits="userSpaceOnUse" x="0" y="0" width="28" height="20">
<rect x="0.25" y="0.25" width="27.5" height="19.5" rx="1.75" fill="white" stroke="white" stroke-width="0.5"/>
</mask>
<g mask="url(#mask0_9_1245)">
<rect x="20" width="8" height="20" fill="#FF3131"/>
<path fill-rule="evenodd" clip-rule="evenodd" d="M0 20H8V0H0V20Z" fill="#FF3131"/>
<path fill-rule="evenodd" clip-rule="evenodd" d="M16.1117 9.2212C15.8785 9.45441 15.4845 9.24353 15.5492 8.92013L15.9999 6.66634L14.6666 7.33301L13.9999 5.33301L13.3333 7.33301L11.9999 6.66634L12.4507 8.92013C12.5154 9.24353 12.1213 9.45441 11.8881 9.2212L11.569 8.90204C11.4388 8.77187 11.2277 8.77187 11.0975 8.90204L10.6666 9.33301L9.33325 8.66634L9.99992 9.99967L9.56895 10.4306C9.43878 10.5608 9.43878 10.7719 9.56895 10.902L11.3333 12.6663H13.3333L13.6666 14.6663H14.3333L14.6666 12.6663H16.6666L18.4309 10.902C18.5611 10.7719 18.5611 10.5608 18.4309 10.4306L17.9999 9.99967L18.6666 8.66634L17.3333 9.33301L16.9023 8.90204C16.7721 8.77187 16.5611 8.77187 16.4309 8.90204L16.1117 9.2212Z" fill="#FF3131"/>
</g>
</svg>
