<svg width="12" height="13" viewBox="0 0 12 13" fill="none" xmlns="http://www.w3.org/2000/svg">
<g clip-path="url(#clip0_184_104)">
<path d="M6.4778 2.14961L6.20002 2.56535L6.4778 2.14961C6.24757 1.99578 5.9769 1.91367 5.7 1.91367C5.3287 1.91367 4.9726 2.06117 4.71005 2.32372C4.4475 2.58627 4.3 2.94237 4.3 3.31367C4.3 3.59056 4.38211 3.86124 4.53594 4.09147C4.59053 4.17317 4.65329 4.24847 4.72297 4.31637C4.45938 4.33486 4.21024 4.4478 4.02219 4.63585C3.81589 4.84214 3.7 5.12193 3.7 5.41367C3.7 5.70541 3.8159 5.9852 4.02218 6.19149C4.22847 6.39778 4.50826 6.51367 4.8 6.51367H4.9V7.31367H4.8C4.50826 7.31367 4.22847 7.42956 4.02218 7.63585C3.8159 7.84214 3.7 8.12193 3.7 8.41367C3.7 8.70541 3.81589 8.9852 4.02218 9.19149C4.22848 9.39778 4.50826 9.51367 4.8 9.51367H7.2C7.49174 9.51367 7.77153 9.39778 7.97782 9.19149C8.18411 8.9852 8.3 8.70541 8.3 8.41367C8.3 8.12193 8.18411 7.84214 7.97782 7.63585C7.77153 7.42956 7.49174 7.31367 7.2 7.31367H7.1V5.41367C7.1 5.12193 6.98411 4.84214 6.77782 4.63585C6.70189 4.55992 6.61599 4.49624 6.52321 4.44607C6.58218 4.4032 6.63796 4.35561 6.68995 4.30362C6.88575 4.10783 7.01908 3.85837 7.0731 3.5868L6.58271 3.48925L7.0731 3.5868C7.12712 3.31522 7.0994 3.03373 6.99343 2.77792L6.53149 2.96926L6.99343 2.77791C6.88747 2.5221 6.70803 2.30345 6.4778 2.14961ZM2.94437 1.44059C3.84876 0.836292 4.91203 0.513726 5.99973 0.513672C7.45797 0.515345 8.85602 1.09537 9.88716 2.12651C10.9184 3.15772 11.4984 4.55587 11.5 6.01422C11.4999 7.10183 11.1773 8.16499 10.5731 9.06931C9.96874 9.97378 9.10975 10.6787 8.10476 11.095C7.09977 11.5113 5.9939 11.6202 4.92701 11.408C3.86011 11.1958 2.8801 10.6719 2.11092 9.90276C1.34173 9.13357 0.817902 8.15356 0.605684 7.08667C0.393465 6.01977 0.502383 4.91391 0.918665 3.90891C1.33495 2.90392 2.0399 2.04494 2.94437 1.44059Z" fill="#9CA3AF" stroke="#9CA3AF"/>
</g>
<defs>
<clipPath id="clip0_184_104">
<rect width="12" height="12" fill="white" transform="translate(0 0.0136719)"/>
</clipPath>
</defs>
</svg>
