<svg id="Layer_1" data-name="Layer 1" xmlns="http://www.w3.org/2000/svg" viewBox="0 0 1080 1080"><defs><style>.cls-1{fill:#fff;}.cls-2{fill:#fbb040;}</style></defs><path class="cls-1" d="M732.39,219.32A351,351,0,0,1,830,316.52L878.5,163.73Z"/><path class="cls-1" d="M478,17H37.18V1063H478c8,0,15.94-.11,23.81-.38a719.35,719.35,0,0,0,87.25-7.8q19.91-3,39.14-7.14,26.22-5.6,51.14-13.17,20-6.08,39.12-13.4a538.2,538.2,0,0,0,87.24-42.4q20.32-12.26,39.14-26.19c124.67-92.12,198-236.5,198-412.52C1042.82,229.2,814.21,17,478,17ZM844.83,739.08a347.35,347.35,0,0,1-39.14,56.53,356.48,356.48,0,0,1-87.24,73.94,397.35,397.35,0,0,1-39.12,20.79A425.81,425.81,0,0,1,628.19,910q-19,6-39.14,10.44a535.6,535.6,0,0,1-87.25,11.7Q485.66,933,469,933H186.61V147H469c104.56,0,194,25.93,263.37,72.32L878.5,163.73,830,316.52C871,378,893.39,453.89,893.39,540,893.39,615.05,876.41,682.32,844.83,739.08Z"/><path class="cls-2" d="M844.83,450.79V955.27q-18.8,13.35-39.14,25.14a548.4,548.4,0,0,1-87.24,40.7V450.79Z"/><path class="cls-2" d="M628.19,654.89v392.79q-19.23,4.13-39.14,7.14a719.35,719.35,0,0,1-87.25,7.8V654.89Z"/><rect class="cls-2" x="285.17" y="804.87" width="126.37" height="258.13"/><polygon class="cls-2" points="878.5 163.73 829.96 316.52 815.47 362.12 771.3 301.35 519.48 584.64 377.06 573.05 186.61 751.88 186.61 720.86 368.9 549.69 510.08 561.2 754.65 286.05 678.09 239.97 732.39 219.32 878.5 163.73"/></svg>