<svg width="36" height="37" viewBox="0 0 36 37" fill="none" xmlns="http://www.w3.org/2000/svg">
<g clip-path="url(#clip0_184_24)">
<path d="M36 11.4084C36 8.97746 33.0732 3.2042 32.1768 1.49325C32.0213 1.19642 31.7929 0.948958 31.5156 0.77666C31.2382 0.604363 30.922 0.513543 30.6 0.513672H5.4C5.0811 0.513536 4.76789 0.602585 4.49241 0.771707C4.21694 0.940828 3.9891 1.18395 3.8322 1.4762C2.934 3.15304 0 8.82209 0 11.4084C0.000785137 12.2358 0.160666 13.0546 0.470013 13.8152C0.77936 14.5759 1.23177 15.2628 1.8 15.8345V34.6189C1.8 35.1215 1.98964 35.6034 2.32721 35.9587C2.66477 36.314 3.12261 36.5137 3.6 36.5137H7.2C7.67739 36.5137 8.13523 36.314 8.47279 35.9587C8.81036 35.6034 9 35.1215 9 34.6189V23.2505H16.2V34.6189C16.2 35.1215 16.3896 35.6034 16.7272 35.9587C17.0648 36.314 17.5226 36.5137 18 36.5137H32.4C32.8774 36.5137 33.3352 36.314 33.6728 35.9587C34.0104 35.6034 34.2 35.1215 34.2 34.6189V15.7549C34.7586 15.1921 35.2055 14.518 35.5145 13.7719C35.8235 13.0257 35.9885 12.2223 36 11.4084ZM6.4638 4.30315H29.52C30.7629 6.53315 31.7307 8.92081 32.4 11.4084C32.363 12.0238 32.1141 12.6039 31.6999 13.0399C31.2857 13.4759 30.7346 13.7379 30.15 13.7768C29.5536 13.7758 28.9818 13.526 28.5601 13.082C28.1383 12.6381 27.901 12.0362 27.9 11.4084C27.9 10.9059 27.7104 10.424 27.3728 10.0686C27.0352 9.7133 26.5774 9.51367 26.1 9.51367C25.6226 9.51367 25.1648 9.7133 24.8272 10.0686C24.4896 10.424 24.3 10.9059 24.3 11.4084C24.3 12.0366 24.0629 12.639 23.641 13.0831C23.219 13.5273 22.6467 13.7768 22.05 13.7768C21.4533 13.7768 20.881 13.5273 20.459 13.0831C20.0371 12.639 19.8 12.0366 19.8 11.4084C19.8 10.9059 19.6104 10.424 19.2728 10.0686C18.9352 9.7133 18.4774 9.51367 18 9.51367C17.5226 9.51367 17.0648 9.7133 16.7272 10.0686C16.3896 10.424 16.2 10.9059 16.2 11.4084C16.2 12.0366 15.9629 12.639 15.541 13.0831C15.119 13.5273 14.5467 13.7768 13.95 13.7768C13.3533 13.7768 12.781 13.5273 12.359 13.0831C11.9371 12.639 11.7 12.0366 11.7 11.4084C11.7 10.9059 11.5104 10.424 11.1728 10.0686C10.8352 9.7133 10.3774 9.51367 9.9 9.51367C9.42261 9.51367 8.96477 9.7133 8.62721 10.0686C8.28964 10.424 8.1 10.9059 8.1 11.4084C8.09905 12.0362 7.86169 12.6381 7.43994 13.082C7.01819 13.526 6.44644 13.7758 5.85 13.7768C5.25558 13.769 4.68761 13.5169 4.26726 13.0744C3.84692 12.632 3.60747 12.0341 3.6 11.4084C4.23766 8.91191 5.20146 6.52067 6.4638 4.30315ZM27.9 27.04C27.9 27.2912 27.8052 27.5322 27.6364 27.7099C27.4676 27.8875 27.2387 27.9874 27 27.9874H21.6C21.3613 27.9874 21.1324 27.8875 20.9636 27.7099C20.7948 27.5322 20.7 27.2912 20.7 27.04V21.3558C20.7 21.1045 20.7948 20.8636 20.9636 20.6859C21.1324 20.5082 21.3613 20.4084 21.6 20.4084H27C27.2387 20.4084 27.4676 20.5082 27.6364 20.6859C27.8052 20.8636 27.9 21.1045 27.9 21.3558V27.04Z" fill="#6B7280"/>
</g>
<defs>
<clipPath id="clip0_184_24">
<rect width="36" height="36" fill="white" transform="translate(0 0.513672)"/>
</clipPath>
</defs>
</svg>
