<svg width="17" height="16" viewBox="0 0 17 16" fill="none" xmlns="http://www.w3.org/2000/svg">
<g clip-path="url(#clip0_184_61)">
<path d="M15.7015 3.74965L15.7015 3.74967L15.7054 3.75212C15.7113 3.75574 15.7224 3.76495 15.7326 3.78385C15.7429 3.80299 15.75 3.82831 15.75 3.85675V3.85743L15.75 12.4289L15.75 12.4325C15.7501 12.4615 15.7428 12.4874 15.7322 12.5067C15.7218 12.5258 15.7105 12.5348 15.7049 12.5381C15.7039 12.5387 15.703 12.5391 15.7023 12.5395C15.7011 12.54 15.7003 12.5403 15.7 12.5404C15.6999 12.5403 15.6997 12.5403 15.6996 12.5402C15.6987 12.5399 15.6965 12.5391 15.6933 12.5369C15.6932 12.5369 15.6932 12.5368 15.6931 12.5368L13.25 10.8748V5.23618L15.6902 3.74965L15.6906 3.7494C15.6934 3.74766 15.6952 3.74709 15.6958 3.74693C15.6963 3.74678 15.6963 3.74686 15.6958 3.74686C15.6954 3.74686 15.6954 3.74678 15.696 3.74696C15.6966 3.74715 15.6985 3.7478 15.7015 3.74965ZM16.5 12.4289V3.85743V12.4289ZM2.1 2.75H9.29999C9.72154 2.75 10.15 3.13215 10.15 3.71429V12.2857C10.15 12.8679 9.72154 13.25 9.29999 13.25H2.1C1.67845 13.25 1.25 12.8679 1.25 12.2857V3.71429C1.25 3.13215 1.67845 2.75 2.1 2.75Z" fill="#1F2A37" stroke="#1F2A37" stroke-width="1.5"/>
</g>
<defs>
<clipPath id="clip0_184_61">
<rect width="16" height="16" fill="white" transform="translate(0.5)"/>
</clipPath>
</defs>
</svg>
