<svg width="20" height="20" viewBox="0 0 20 20" fill="none" xmlns="http://www.w3.org/2000/svg">
<path d="M11 2.5H2C0.89543 2.5 0 3.45939 0 4.64286V15.3571C0 16.5406 0.89543 17.5 2 17.5H11C12.1046 17.5 13 16.5406 13 15.3571V4.64286C13 3.45939 12.1046 2.5 11 2.5Z" fill="white"/>
<path d="M19.5 3.89286C19.3485 3.79784 19.1763 3.74722 19.0008 3.7461C18.8253 3.74497 18.6525 3.79337 18.5 3.88643L15 6.01857V14.0896L18.465 16.4468C18.6166 16.5496 18.7912 16.6069 18.9706 16.6126C19.15 16.6182 19.3274 16.5721 19.4844 16.4789C19.6414 16.3858 19.7721 16.2491 19.8628 16.0832C19.9535 15.9173 20.0009 15.7283 20 15.5361V4.82179C20.0002 4.63353 19.954 4.44856 19.8663 4.28548C19.7785 4.1224 19.6521 3.98698 19.5 3.89286Z" fill="white"/>
</svg>
