<svg width="8" height="8" viewBox="0 0 8 8" fill="none" xmlns="http://www.w3.org/2000/svg">
<g clip-path="url(#clip0_184_39)">
<path d="M4.72595 4.00039L7.44329 1.28305C7.49233 1.23569 7.53144 1.17904 7.55834 1.1164C7.58525 1.05377 7.59941 0.986403 7.6 0.918236C7.6006 0.850069 7.58761 0.782467 7.56179 0.719374C7.53598 0.656281 7.49786 0.59896 7.44966 0.550757C7.40145 0.502554 7.34413 0.464434 7.28104 0.43862C7.21795 0.412807 7.15035 0.399818 7.08218 0.40041C7.01401 0.401002 6.94665 0.415165 6.88401 0.442071C6.82138 0.468977 6.76473 0.508087 6.71737 0.557121L4.00002 3.27446L1.28268 0.557121C1.18585 0.463604 1.05617 0.411857 0.921565 0.413027C0.786957 0.414197 0.658194 0.468189 0.563008 0.563375C0.467823 0.65856 0.413831 0.787323 0.412661 0.921931C0.411491 1.05654 0.463238 1.18622 0.556755 1.28305L3.2741 4.00039L0.556755 6.71773C0.507721 6.76509 0.46861 6.82174 0.441704 6.88438C0.414799 6.94701 0.400636 7.01438 0.400044 7.08254C0.399451 7.15071 0.412441 7.21831 0.438254 7.28141C0.464068 7.3445 0.502188 7.40182 0.550391 7.45002C0.598594 7.49823 0.655915 7.53635 0.719008 7.56216C0.782101 7.58797 0.849703 7.60096 0.91787 7.60037C0.986037 7.59978 1.0534 7.58562 1.11604 7.55871C1.17867 7.5318 1.23532 7.49269 1.28268 7.44366L4.00002 4.72632L6.71737 7.44366C6.81419 7.53718 6.94388 7.58892 7.07848 7.58775C7.21309 7.58658 7.34185 7.53259 7.43704 7.43741C7.53223 7.34222 7.58622 7.21346 7.58739 7.07885C7.58856 6.94424 7.53681 6.81456 7.44329 6.71773L4.72595 4.00039Z" fill="#6875F5"/>
</g>
<defs>
<clipPath id="clip0_184_39">
<rect width="8" height="8" fill="white"/>
</clipPath>
</defs>
</svg>
