<svg width="14" height="15" viewBox="0 0 14 15" fill="none" xmlns="http://www.w3.org/2000/svg">
<path fill-rule="evenodd" clip-rule="evenodd" d="M8.605 4.20495C8.73627 4.07372 8.91429 4 9.0999 4C9.28552 4 9.46353 4.07372 9.5948 4.20495L12.3948 7.00495C12.526 7.13622 12.5998 7.31424 12.5998 7.49985C12.5998 7.68547 12.526 7.86348 12.3948 7.99475L9.5948 10.7947C9.46278 10.9223 9.28596 10.9928 9.10242 10.9912C8.91888 10.9896 8.74332 10.916 8.61353 10.7862C8.48374 10.6564 8.41013 10.4809 8.40853 10.2973C8.40694 10.1138 8.47749 9.93697 8.605 9.80495L10.2101 8.19985H2.0999C1.91425 8.19985 1.7362 8.1261 1.60493 7.99482C1.47365 7.86355 1.3999 7.6855 1.3999 7.49985C1.3999 7.3142 1.47365 7.13615 1.60493 7.00488C1.7362 6.8736 1.91425 6.79985 2.0999 6.79985H10.2101L8.605 5.19475C8.47377 5.06348 8.40005 4.88547 8.40005 4.69985C8.40005 4.51424 8.47377 4.33622 8.605 4.20495V4.20495Z" fill="white"/>
</svg>
