<svg width="15" height="15" viewBox="0 0 15 15" fill="none" xmlns="http://www.w3.org/2000/svg">
<g clip-path="url(#clip0_128_112)">
<path d="M14.3819 8.28976C14.4576 8.09834 14.4774 7.8877 14.4388 7.68449C14.4001 7.48128 14.3048 7.29464 14.1649 7.14818L10.1646 2.95889C10.0724 2.85886 9.96202 2.77908 9.84001 2.72419C9.71799 2.6693 9.58677 2.64041 9.45398 2.6392C9.32119 2.63799 9.1895 2.66449 9.0666 2.71715C8.94369 2.76981 8.83203 2.84758 8.73814 2.94591C8.64424 3.04425 8.56998 3.16118 8.5197 3.2899C8.46941 3.41861 8.44411 3.55652 8.44526 3.69558C8.44642 3.83464 8.474 3.97207 8.52642 4.09985C8.57883 4.22763 8.65502 4.3432 8.75053 4.43981L11.0447 6.84236H1.45807C1.19284 6.84236 0.938468 6.9527 0.75092 7.14912C0.563372 7.34553 0.458008 7.61192 0.458008 7.88968C0.458008 8.16745 0.563372 8.43384 0.75092 8.63025C0.938468 8.82666 1.19284 8.937 1.45807 8.937H11.0447L8.75153 11.3385C8.65602 11.4351 8.57983 11.5507 8.52742 11.6785C8.475 11.8062 8.44742 11.9437 8.44626 12.0827C8.44511 12.2218 8.47041 12.3597 8.5207 12.4884C8.57098 12.6171 8.64524 12.7341 8.73914 12.8324C8.83303 12.9307 8.94469 13.0085 9.0676 13.0612C9.1905 13.1138 9.32219 13.1403 9.45498 13.1391C9.58776 13.1379 9.71899 13.109 9.841 13.0541C9.96302 12.9992 10.0734 12.9195 10.1656 12.8194L14.1659 8.63014C14.2585 8.53264 14.3319 8.41698 14.3819 8.28976V8.28976Z" fill="white"/>
</g>
<defs>
<clipPath id="clip0_128_112">
<rect width="14" height="14" fill="white" transform="translate(0.458008 0.88916)"/>
</clipPath>
</defs>
</svg>
