<svg width="14" height="14" viewBox="0 0 14 14" fill="none" xmlns="http://www.w3.org/2000/svg">
<path d="M13.9239 7.4006C13.9996 7.20918 14.0194 6.99854 13.9808 6.79533C13.9421 6.59212 13.8468 6.40548 13.7069 6.25902L9.70661 2.06973C9.61436 1.9697 9.50401 1.88992 9.382 1.83503C9.25999 1.78014 9.12876 1.75125 8.99597 1.75004C8.86318 1.74883 8.73149 1.77533 8.60859 1.82799C8.48569 1.88065 8.37403 1.95842 8.28013 2.05675C8.18623 2.15509 8.11197 2.27202 8.06169 2.40074C8.0114 2.52945 7.9861 2.66736 7.98725 2.80642C7.98841 2.94548 8.016 3.08291 8.06841 3.21069C8.12082 3.33847 8.19701 3.45404 8.29252 3.55065L10.5867 5.9532H1.00006C0.73483 5.9532 0.48046 6.06354 0.292912 6.25996C0.105364 6.45637 0 6.72276 0 7.00052C0 7.27829 0.105364 7.54468 0.292912 7.74109C0.48046 7.9375 0.73483 8.04784 1.00006 8.04784H10.5867L8.29352 10.4494C8.19801 10.546 8.12182 10.6615 8.06941 10.7893C8.017 10.9171 7.98941 11.0545 7.98825 11.1936C7.9871 11.3326 8.0124 11.4706 8.06269 11.5993C8.11297 11.728 8.18723 11.8449 8.28113 11.9432C8.37503 12.0416 8.48669 12.1194 8.60959 12.172C8.73249 12.2247 8.86418 12.2512 8.99697 12.25C9.12976 12.2488 9.26099 12.2199 9.383 12.165C9.50501 12.1101 9.61536 12.0303 9.70761 11.9303L13.7079 7.74098C13.8005 7.64348 13.8739 7.52781 13.9239 7.4006V7.4006Z" fill="white"/>
</svg>
