<svg width="16" height="16" viewBox="0 0 16 16" fill="none" xmlns="http://www.w3.org/2000/svg">
<path d="M12.8887 8.86893V7.35316C12.8894 6.3287 12.4992 5.334 11.7813 4.5299C11.0633 3.7258 10.0597 3.15932 8.93254 2.92206C8.94113 2.89267 8.94781 2.86287 8.95254 2.8328V0.842093C8.95254 0.618756 8.8522 0.404567 8.6736 0.246644C8.49499 0.0887205 8.25275 0 8.00016 0C7.74758 0 7.50533 0.0887205 7.32673 0.246644C7.14812 0.404567 7.04778 0.618756 7.04778 0.842093V2.8328C7.05252 2.86287 7.0592 2.89267 7.06778 2.92206C5.94065 3.15932 4.93698 3.7258 4.21906 4.5299C3.50114 5.334 3.11095 6.3287 3.11159 7.35316V8.86893C3.11159 10.8782 1.3335 11.38 1.3335 12.3847C1.3335 12.884 1.3335 13.3893 1.84588 13.3893H14.1544C14.6668 13.3893 14.6668 12.884 14.6668 12.3847C14.6668 11.38 12.8887 10.8782 12.8887 8.86893Z" fill="#1F2A37"/>
<path d="M4.97445 14.2314C5.22709 14.756 5.64863 15.2034 6.1866 15.5179C6.72458 15.8323 7.35526 16 8.00016 16C8.64507 16 9.27574 15.8323 9.81372 15.5179C10.3517 15.2034 10.7732 14.756 11.0259 14.2314H4.97445Z" fill="#1F2A37"/>
</svg>
