<svg width="14" height="15" viewBox="0 0 14 15" fill="none" xmlns="http://www.w3.org/2000/svg">
<g clip-path="url(#clip0_184_28)">
<path d="M12.4981 8.39081L13.9718 3.49143C14.003 3.38727 14.0084 3.27764 13.9875 3.17117C13.9666 3.06471 13.9199 2.96431 13.8512 2.87788C13.7825 2.79145 13.6936 2.72134 13.5915 2.67308C13.4895 2.62481 13.377 2.59971 13.263 2.59974H3.51469L3.07627 1.02143C3.03478 0.871989 2.94238 0.739791 2.81349 0.645465C2.6846 0.551139 2.52646 0.499991 2.36376 0.5H0.736832C0.541412 0.5 0.353996 0.573741 0.215813 0.705C0.0776302 0.836259 0 1.01428 0 1.19991C0 1.38554 0.0776302 1.56357 0.215813 1.69483C0.353996 1.82608 0.541412 1.89982 0.736832 1.89982H1.7964L2.23849 3.47813V3.48513V3.49143L3.71216 8.39081L4.26183 10.4807C3.89794 10.634 3.58436 10.8778 3.35422 11.1863C3.12408 11.4948 2.98591 11.8566 2.95431 12.2335C2.9227 12.6105 2.99883 12.9885 3.17466 13.3277C3.35049 13.667 3.61948 13.9548 3.95325 14.1609C4.28702 14.3669 4.67317 14.4835 5.07092 14.4984C5.46867 14.5132 5.86327 14.4258 6.21305 14.2453C6.56283 14.0648 6.8548 13.7979 7.05814 13.4729C7.26149 13.1478 7.36865 12.7766 7.36832 12.3985C7.36587 12.1595 7.32001 11.9227 7.23274 11.6986H8.97756C8.89029 11.9227 8.84442 12.1595 8.84198 12.3985C8.84198 12.8138 8.97162 13.2198 9.21452 13.5651C9.45741 13.9104 9.80264 14.1795 10.2066 14.3384C10.6105 14.4973 11.0549 14.5389 11.4837 14.4579C11.9125 14.3769 12.3064 14.1769 12.6155 13.8832C12.9247 13.5896 13.1352 13.2155 13.2205 12.8081C13.3058 12.4008 13.262 11.9787 13.0947 11.595C12.9274 11.2113 12.6441 10.8834 12.2806 10.6526C11.917 10.4219 11.4897 10.2988 11.0525 10.2988H5.73255L5.36413 8.89895H11.7893C11.9496 8.89899 12.1055 8.8494 12.2334 8.75771C12.3613 8.66601 12.4542 8.53721 12.4981 8.39081ZM11.0525 11.6986C11.1982 11.6986 11.3407 11.7396 11.4618 11.8166C11.583 11.8935 11.6774 12.0028 11.7332 12.1307C11.789 12.2586 11.8036 12.3993 11.7751 12.5351C11.7467 12.6708 11.6765 12.7955 11.5735 12.8934C11.4704 12.9913 11.3392 13.058 11.1962 13.085C11.0533 13.112 10.9051 13.0981 10.7705 13.0451C10.6359 12.9922 10.5208 12.9025 10.4398 12.7874C10.3589 12.6723 10.3156 12.5369 10.3156 12.3985C10.3156 12.2129 10.3933 12.0349 10.5315 11.9036C10.6696 11.7723 10.8571 11.6986 11.0525 11.6986ZM5.89465 12.3985C5.89465 12.5369 5.85144 12.6723 5.77047 12.7874C5.68951 12.9025 5.57443 12.9922 5.43979 13.0451C5.30516 13.0981 5.157 13.112 5.01407 13.085C4.87114 13.058 4.73985 12.9913 4.6368 12.8934C4.53375 12.7955 4.46358 12.6708 4.43515 12.5351C4.40672 12.3993 4.42131 12.2586 4.47708 12.1307C4.53285 12.0028 4.62729 11.8935 4.74846 11.8166C4.86963 11.7396 5.01209 11.6986 5.15782 11.6986C5.35324 11.6986 5.54066 11.7723 5.67884 11.9036C5.81702 12.0349 5.89465 12.2129 5.89465 12.3985ZM9.57881 6.0993H8.84198V6.79921C8.84198 6.98484 8.76435 7.16286 8.62617 7.29412C8.48798 7.42538 8.30057 7.49912 8.10515 7.49912C7.90973 7.49912 7.72231 7.42538 7.58413 7.29412C7.44595 7.16286 7.36832 6.98484 7.36832 6.79921V6.0993H6.63148C6.43606 6.0993 6.24865 6.02556 6.11047 5.8943C5.97228 5.76304 5.89465 5.58501 5.89465 5.39939C5.89465 5.21376 5.97228 5.03573 6.11047 4.90447C6.24865 4.77321 6.43606 4.69947 6.63148 4.69947H7.36832V3.99956C7.36832 3.81393 7.44595 3.63591 7.58413 3.50465C7.72231 3.37339 7.90973 3.29965 8.10515 3.29965C8.30057 3.29965 8.48798 3.37339 8.62617 3.50465C8.76435 3.63591 8.84198 3.81393 8.84198 3.99956V4.69947H9.57881C9.77423 4.69947 9.96165 4.77321 10.0998 4.90447C10.238 5.03573 10.3156 5.21376 10.3156 5.39939C10.3156 5.58501 10.238 5.76304 10.0998 5.8943C9.96165 6.02556 9.77423 6.0993 9.57881 6.0993Z" fill="white"/>
</g>
<defs>
<clipPath id="clip0_184_28">
<rect width="14" height="14" fill="white" transform="translate(0 0.5)"/>
</clipPath>
</defs>
</svg>
