<svg width="12" height="12" viewBox="0 0 12 12" fill="none" xmlns="http://www.w3.org/2000/svg">
<path d="M6.01337 9C5.72696 8.99994 5.4523 8.89476 5.24981 8.7076L0.929809 4.71577C0.826658 4.62372 0.744381 4.5136 0.687779 4.39184C0.631178 4.27009 0.601385 4.13914 0.600138 4.00663C0.598892 3.87412 0.626218 3.74271 0.680521 3.62006C0.734825 3.49742 0.815018 3.386 0.916422 3.2923C1.01783 3.19859 1.13841 3.12449 1.27114 3.07432C1.40387 3.02414 1.54608 2.99889 1.68948 3.00004C1.83288 3.00119 1.9746 3.02872 2.10637 3.08102C2.23813 3.13332 2.3573 3.20935 2.45693 3.30466L6.01337 6.59093L9.56981 3.30466C9.7735 3.12288 10.0463 3.02229 10.3295 3.02456C10.6127 3.02684 10.8835 3.13179 11.0838 3.31682C11.284 3.50185 11.3976 3.75215 11.4001 4.01381C11.4025 4.27547 11.2937 4.52756 11.0969 4.71577L6.77693 8.7076C6.57444 8.89476 6.29978 8.99994 6.01337 9Z" fill="white"/>
</svg>
