<svg width="10" height="10" viewBox="0 0 10 10" fill="none" xmlns="http://www.w3.org/2000/svg">
<g clip-path="url(#clip0_184_37)">
<path d="M5 0C4.0111 0 3.0444 0.293245 2.22215 0.842652C1.39991 1.39206 0.759043 2.17295 0.380605 3.08658C0.00216642 4.00021 -0.0968502 5.00554 0.0960758 5.97545C0.289002 6.94535 0.765206 7.83627 1.46447 8.53553C2.16373 9.23479 3.05465 9.711 4.02455 9.90392C4.99446 10.0968 5.99979 9.99783 6.91342 9.6194C7.82705 9.24096 8.60794 8.60009 9.15735 7.77785C9.70675 6.9556 10 5.9889 10 5C9.99854 3.67436 9.47129 2.40344 8.53393 1.46607C7.59656 0.528707 6.32564 0.0014558 5 0V0ZM6.991 6.991C6.89724 7.08473 6.77008 7.13739 6.6375 7.13739C6.50492 7.13739 6.37777 7.08473 6.284 6.991L4.647 5.354C4.55347 5.25984 4.50068 5.13271 4.5 5V3C4.5 2.86739 4.55268 2.74021 4.64645 2.64645C4.74022 2.55268 4.86739 2.5 5 2.5C5.13261 2.5 5.25979 2.55268 5.35355 2.64645C5.44732 2.74021 5.5 2.86739 5.5 3V4.793L6.991 6.284C7.08474 6.37776 7.13739 6.50492 7.13739 6.6375C7.13739 6.77008 7.08474 6.89723 6.991 6.991V6.991Z" fill="#42389D"/>
</g>
<defs>
<clipPath id="clip0_184_37">
<rect width="10" height="10" fill="white"/>
</clipPath>
</defs>
</svg>
