<svg id="Layer_1" data-name="Layer 1" xmlns="http://www.w3.org/2000/svg" viewBox="0 0 1080 1080"><defs><style>.cls-1{fill:#2e3192;}.cls-2{fill:#fbb040;}</style></defs><path class="cls-1" d="M818,190,759.1,259.53l-9.37,11.05c1.34,1.17,2.67,2.37,4,3.58a313.36,313.36,0,0,1,22,22.3l8.43-9.94,60.58-71.46Z"/><path class="cls-1" d="M482.56,10.93H20V1069.07H484.16c57.37-.1,111.68-6.14,162.35-17.6q20.31-4.57,39.81-10.34c60.32-17.73,114.8-43.6,162.34-76.65C981.43,872.16,1060,723.82,1060,540,1060,222.56,825.7,10.93,482.56,10.93ZM848.66,646.5c-24.31,91.63-81,163.17-162.34,207.1a370.49,370.49,0,0,1-39.81,18.51C598.78,891,544.27,901.57,484.16,902.69q-5.3.1-10.67.1h-257V177.21h257c114.22,0,208.94,33.69,276.24,93.37l9.37-11.05L818,190l26.75,25.06L784.2,286.52l-8.43,9.94c.84.92,1.66,1.85,2.47,2.78C832.06,360.74,862,443,862,540,862,577.87,857.42,613.49,848.66,646.5Z"/><polygon class="cls-2" points="844.78 215.06 784.2 286.52 775.77 296.46 538.38 576.53 391.27 565.11 216.51 734.24 216.51 663.04 378.43 506.34 523.4 517.58 749.73 250.58 759.1 239.53 818.03 190 844.78 215.06"/><polygon class="cls-2" points="866.26 130.29 812.6 338.45 762.48 273.23 682.21 241.31 866.26 130.29"/><path class="cls-2" d="M848.66,457.24V964.47c-47.54,33-102,58.92-162.34,76.65V457.24Z"/><rect class="cls-2" x="282" y="763.15" width="162.35" height="305.92"/><path class="cls-2" d="M646.51,610.2v441.26c-50.67,11.46-105,17.5-162.35,17.6V610.2Z"/></svg>