<svg width="16" height="17" viewBox="0 0 16 17" fill="none" xmlns="http://www.w3.org/2000/svg">
<path d="M1.60229 5.2074L7.99989 8.4058L14.3975 5.2074C14.3738 4.79975 14.1952 4.41659 13.8982 4.13638C13.6011 3.85617 13.2082 3.70012 12.7999 3.7002H3.19989C2.79156 3.70012 2.39865 3.85617 2.10164 4.13638C1.80462 4.41659 1.62598 4.79975 1.60229 5.2074V5.2074Z" fill="#6B7280"/>
<path d="M14.4001 6.99414L8.0001 10.1941L1.6001 6.99414V11.6997C1.6001 12.1241 1.76867 12.5311 2.06873 12.8311C2.36878 13.1312 2.77575 13.2997 3.2001 13.2997H12.8001C13.2244 13.2997 13.6314 13.1312 13.9315 12.8311C14.2315 12.5311 14.4001 12.1241 14.4001 11.6997V6.99414Z" fill="#6B7280"/>
</svg>
