<svg width="36" height="37" viewBox="0 0 36 37" fill="none" xmlns="http://www.w3.org/2000/svg">
<g clip-path="url(#clip0_184_178)">
<path d="M18.0003 0.513679C15.2655 0.511115 12.5822 1.22699 10.2409 2.58375C7.89969 3.94051 5.98985 5.88642 4.71831 8.21066C3.44678 10.5349 2.86204 13.1488 3.02744 15.7693C3.19283 18.3898 4.10207 20.9168 5.65663 23.0767C5.71885 23.194 5.79431 23.3045 5.88164 23.4061L6.10665 23.6689C6.31665 23.9299 6.53229 24.1819 6.71792 24.3889L16.5527 35.8621C16.7291 36.0664 16.9503 36.2308 17.2005 36.3434C17.4508 36.456 17.7239 36.5142 18.0003 36.5137C18.2774 36.5138 18.5512 36.4549 18.8018 36.3413C19.0524 36.2277 19.2737 36.0622 19.4497 35.8567L28.9976 24.6877C29.3843 24.2885 29.7462 23.8677 30.0814 23.4277L30.3195 23.1487C30.4103 23.0429 30.4871 22.9268 30.5483 22.8031C32.0301 20.6311 32.8726 18.1149 32.9867 15.5209C33.1007 12.9269 32.4821 10.3515 31.1962 8.06743C29.9103 5.78331 28.0051 3.87541 25.6821 2.54568C23.3591 1.21594 20.7049 0.513835 18.0003 0.513679ZM18.0003 9.51368C19.1128 9.51368 20.2004 9.83038 21.1255 10.4237C22.0506 11.0171 22.7716 11.8605 23.1973 12.8472C23.6231 13.8339 23.7345 14.9197 23.5174 15.9672C23.3004 17.0147 22.7646 17.9768 21.9779 18.732C21.1912 19.4873 20.1889 20.0016 19.0977 20.2099C18.0065 20.4183 16.8755 20.3113 15.8476 19.9026C14.8197 19.4939 13.9412 18.8018 13.3231 17.9138C12.7049 17.0257 12.375 15.9817 12.375 14.9137C12.375 13.4815 12.9677 12.108 14.0226 11.0953C15.0776 10.0826 16.5084 9.51368 18.0003 9.51368Z" fill="#6B7280"/>
</g>
<defs>
<clipPath id="clip0_184_178">
<rect width="36" height="36" fill="white" transform="translate(0 0.513672)"/>
</clipPath>
</defs>
</svg>
