<svg width="20" height="20" viewBox="0 0 20 20" fill="none" xmlns="http://www.w3.org/2000/svg">
<path d="M19.8475 17.4242L15.4477 10.2242C15.3652 10.0881 15.2528 9.97362 15.1196 9.89008C14.9865 9.80655 14.8361 9.75622 14.6806 9.74312C14.5252 9.73003 14.3689 9.75453 14.2243 9.81468C14.0796 9.87482 13.9507 9.96893 13.8478 10.0895L11.6838 12.6074L7.87202 5.63886C7.78157 5.47938 7.6521 5.34704 7.49649 5.255C7.34088 5.16297 7.16456 5.11446 6.98506 5.11429C6.80498 5.11714 6.629 5.16997 6.4757 5.26719C6.32239 5.36441 6.19746 5.50242 6.1141 5.66663L0.114369 17.4952C0.0347308 17.652 -0.00423452 17.8273 0.00123892 18.0042C0.00671235 18.181 0.0564395 18.3534 0.145615 18.5047C0.23479 18.656 0.360397 18.7811 0.510298 18.8678C0.660199 18.9546 0.829324 19.0001 1.00133 19H19.0005C19.1792 19 19.3547 18.9508 19.5087 18.8575C19.6626 18.7641 19.7894 18.63 19.8759 18.4691C19.9624 18.3082 20.0053 18.1264 20.0003 17.9427C19.9953 17.7589 19.9426 17.5799 19.8475 17.4242Z" fill="#F9FAFF"/>
<path d="M12.5008 7.17143C14.1576 7.17143 15.5007 5.78991 15.5007 4.08571C15.5007 2.38152 14.1576 1 12.5008 1C10.844 1 9.50095 2.38152 9.50095 4.08571C9.50095 5.78991 10.844 7.17143 12.5008 7.17143Z" fill="#F9FAFF"/>
</svg>
