<svg width="36" height="37" viewBox="0 0 36 37" fill="none" xmlns="http://www.w3.org/2000/svg">
<g clip-path="url(#clip0_184_189)">
<path d="M17.1938 24.0697C18.0306 24.9038 19.1639 25.3721 20.3455 25.3721C21.5271 25.3721 22.6605 24.9038 23.4972 24.0697L25.0731 22.4941C25.9099 21.66 27.0433 21.1916 28.2249 21.1916C29.4064 21.1916 30.5398 21.66 31.3766 22.4941L34.5284 25.6453C34.9891 26.0311 35.3597 26.5132 35.614 27.0577C35.8682 27.6021 36 28.1957 36 28.7966C36 29.3975 35.8682 29.9911 35.614 30.5355C35.3597 31.08 34.9891 31.5621 34.5284 31.9479C26.2753 40.2019 16.775 36.2808 8.4972 28.0043C0.219374 19.7277 -3.68203 10.2379 4.57328 1.98384C4.95933 1.52349 5.44158 1.15329 5.98609 0.899295C6.53061 0.645299 7.12417 0.513672 7.72503 0.513672C8.32588 0.513672 8.91944 0.645299 9.46396 0.899295C10.0085 1.15329 10.4907 1.52349 10.8768 1.98384L14.0285 5.13511C14.8632 5.97149 15.3321 7.1048 15.3321 8.28637C15.3321 9.46794 14.8632 10.6013 14.0285 11.4376L12.4526 13.0133C11.6179 13.8496 11.1491 14.983 11.1491 16.1645C11.1491 17.3461 11.6179 18.4794 12.4526 19.3158L17.1938 24.0697Z" fill="#6B7280"/>
</g>
<defs>
<clipPath id="clip0_184_189">
<rect width="36" height="36" fill="white" transform="translate(0 0.513672)"/>
</clipPath>
</defs>
</svg>
