<svg width="12" height="12" viewBox="0 0 12 12" fill="none" xmlns="http://www.w3.org/2000/svg">
<g clip-path="url(#clip0_184_10)">
<path d="M7.08898 6.0001L11.165 1.92408C11.2386 1.85304 11.2972 1.76807 11.3376 1.67412C11.3779 1.58017 11.3992 1.47912 11.4001 1.37687C11.401 1.27462 11.3815 1.17321 11.3428 1.07857C11.304 0.983933 11.2469 0.897952 11.1745 0.825648C11.1022 0.753343 11.0163 0.696163 10.9216 0.657442C10.827 0.618722 10.7256 0.599238 10.6233 0.600127C10.5211 0.601015 10.42 0.622259 10.3261 0.662618C10.2321 0.702977 10.1471 0.761643 10.0761 0.835193L6.0001 4.91121L1.92408 0.835193C1.77884 0.694917 1.58432 0.617298 1.38241 0.619052C1.1805 0.620807 0.987352 0.701795 0.844574 0.844574C0.701795 0.987352 0.620807 1.1805 0.619052 1.38241C0.617298 1.58432 0.694917 1.77884 0.835193 1.92408L4.91121 6.0001L0.835193 10.0761C0.761643 10.1471 0.702977 10.2321 0.662618 10.3261C0.622259 10.42 0.601015 10.5211 0.600127 10.6233C0.599238 10.7256 0.618722 10.827 0.657442 10.9216C0.696163 11.0163 0.753343 11.1022 0.825648 11.1745C0.897952 11.2469 0.983933 11.304 1.07857 11.3428C1.17321 11.3815 1.27462 11.401 1.37687 11.4001C1.47912 11.3992 1.58017 11.3779 1.67412 11.3376C1.76807 11.2972 1.85304 11.2386 1.92408 11.165L6.0001 7.08898L10.0761 11.165C10.2214 11.3053 10.4159 11.3829 10.6178 11.3811C10.8197 11.3794 11.0128 11.2984 11.1556 11.1556C11.2984 11.0128 11.3794 10.8197 11.3811 10.6178C11.3829 10.4159 11.3053 10.2214 11.165 10.0761L7.08898 6.0001Z" fill="#6B7280"/>
</g>
<defs>
<clipPath id="clip0_184_10">
<rect width="12" height="12" fill="white"/>
</clipPath>
</defs>
</svg>
